<svg fill="none" height="18" viewBox="0 0 18 18" width="18" xmlns="http://www.w3.org/2000/svg"><path d="m17.6584 5.61455-8.22652-5.484362c-.2808-.1727922-.58047-.1743742-.86383 0l-8.226543 5.484362c-.210937.14059-.341507.39175-.341507.64283v5.48432c0 .2511.13057.5023.341542.6429l8.226548 5.4851c.28079.1728.58046.1744.86382 0l8.22659-5.4851c.2109-.1406.3415-.3918.3415-.6429v-5.48432c0-.25108-.1306-.50224-.3416-.64283zm-7.88498-3.39514 6.05688 4.03797-2.702 1.80805-3.35488-2.23997zm-1.54687 0v3.60605l-3.35492 2.23997-2.702-1.80805zm-6.67968 5.4844 1.93862 1.29576-1.93862 1.29573zm6.67968 8.07589-6.05692-4.038 2.702-1.808 3.35492 2.24zm.77343-4.952-2.73216-1.82813 2.73216-1.82813 2.73212 1.82813zm.77344 4.952v-3.606l3.35488-2.24 2.702 1.808zm6.67968-5.4844-1.9386-1.29573 1.9386-1.29576z" fill="#f4f4ed"/></svg>