<svg fill="none" height="29" viewBox="0 0 18 29" width="18" xmlns="http://www.w3.org/2000/svg"><path d="m12.6 5.4v13.5h-7.2v-13.5zm2.7-5.4h-12.6c-1.49062 0-2.7 1.20938-2.7 2.7v23.4c0 1.4906 1.20938 2.7 2.7 2.7h12.6c1.4906 0 2.7-1.2094 2.7-2.7v-23.4c0-1.49062-1.2094-2.7-2.7-2.7zm-12.6 27c-.495 0-.9-.405-.9-.9v-23.4c0-.495.405-.9.9-.9h12.6c.495 0 .9.405.9.9v23.4c0 .495-.405.9-.9.9zm11.025-23.4h-9.45c-.37125 0-.675.30375-.675.675v15.75c0 .3713.30375.675.675.675h9.45c.3712 0 .675-.3037.675-.675v-15.75c0-.37125-.3038-.675-.675-.675zm-2.7 19.8h-4.05c-.37125 0-.675.3038-.675.675v.45c0 .3713.30375.675.675.675h4.05c.3712 0 .675-.3037.675-.675v-.45c0-.3712-.3038-.675-.675-.675z" fill="#30233d"/></svg>