<svg fill="none" height="15" viewBox="0 0 18 15" width="18" xmlns="http://www.w3.org/2000/svg"><path d="m16.1498 3.6434c.0114.15989.0114.31981.0114.47971 0 4.87689-3.7119 10.49619-10.49621 10.49619-2.09011 0-4.03173-.6053-5.66499-1.656.296966.0342.582471.0456.890863.0456 1.724597 0 3.312187-.5825 4.579967-1.5761-1.62184-.0343-2.98098-1.0965-3.44927-2.55841.22845.03424.45686.05709.69673.05709.33121 0 .66245-.0457.97081-.12561-1.69035-.34267-2.958164-1.82743-2.958164-3.62058v-.04567c.491104.27411 1.062214.44543 1.667504.46825-.99366-.66246-1.644652-1.79316-1.644652-3.07236 0-.68526.182708-1.31344.502522-1.861667 1.81601 2.238587 4.54572 3.700487 7.60662 3.860417-.0571-.27411-.09138-.55962-.09138-.84516 0-2.03302 1.64465-3.6891 3.68915-3.6891 1.0621 0 2.0215.445432 2.6954 1.16498.8337-.15989 1.6332-.468286 2.3414-.890866-.2742.856626-.8566 1.576166-1.6219 2.032986.7424-.07991 1.462-.28554 2.1244-.57104-.5025.73093-1.1307 1.38193-1.8502 1.90734z" fill="#00a8f0"/></svg>