<svg fill="none" height="18" viewBox="0 0 18 18" width="18" xmlns="http://www.w3.org/2000/svg"><path d="m9 0c-4.96263 0-9 4.03737-9 9 0 4.9626 4.03737 9 9 9 4.9626 0 9-4.0374 9-9 0-4.96263-4.0374-9-9-9zm5.9505 4.15038c1.0707 1.30812 1.7191 2.97424 1.736 4.78869-.2535-.0536-2.795-.56911-5.3529-.24743-.2088-.50955-.4058-.95781-.6756-1.51018 2.8423-1.16046 4.1305-2.81185 4.2925-3.03108zm-.8546-.88897c-.1382.19695-1.2954 1.75232-4.029 2.7769-1.25967-2.31445-2.65587-4.21577-2.86835-4.50029 2.43784-.587649 5.00685.04609 6.89735 1.72339zm-8.36417-1.20665c.20268.27795 1.57638 2.18163 2.85013 4.44589-3.5959.95491-6.76306.94115-7.10688.93662.49849-2.38548 2.10608-4.36809 4.25675-5.38251zm-4.41911 6.95696c0-.0786.00156-.15685.00392-.23491.33634.0069 4.06161.05491 7.90062-1.094.22007.43069.4303.86788.62325 1.3046-2.7798.78296-5.30543 3.03119-6.55153 5.16429-1.22781-1.3628-1.97626-3.1655-1.97626-5.13998zm2.9688 6.06458c.803-1.6415 2.98227-3.7605 6.08148-4.8178 1.0793 2.8047 1.5256 5.1552 1.6399 5.8297-2.47176 1.0528-5.44405.764-7.72138-1.0119zm9.01378.3081c-.0788-.4677-.4879-2.7181-1.4934-5.48106 2.4089-.38562 4.5254.24566 4.7884.32856-.3427 2.139-1.5704 3.9863-3.295 5.1525z" fill="#f61067"/></svg>